Coordinates
version=1
nRows=12
nColumns=34
inDegrees=yes

Units are S.I. units (second, meters, Newtons, ...)
If the header above contains a line with 'inDegrees', this indicates whether rotational values are in degrees (yes) or radians (no).

endheader
time	pelvis_tilt	pelvis_list	pelvis_rotation	pelvis_tx	pelvis_ty	pelvis_tz	hip_flexion_r	hip_adduction_r	hip_rotation_r	knee_angle_r	ankle_angle_r	subtalar_angle_r	mtp_angle_r	hip_flexion_l	hip_adduction_l	hip_rotation_l	knee_angle_l	ankle_angle_l	subtalar_angle_l	mtp_angle_l	lumbar_extension	lumbar_bending	lumbar_rotation	arm_flex_r	arm_add_r	arm_rot_r	elbow_flex_r	pro_sup_r	arm_flex_l	arm_add_l	arm_rot_l	elbow_flex_l	pro_sup_l
      1.01666670	      2.11999801	      5.27510280	    -19.91587872	      0.05449642	      0.99458501	      0.01795191	     -1.62746491	     -6.52044361	    -11.68469397	      7.37705937	      9.82206630	     -7.54901497	      0.00000000	      4.12169534	     -5.24301912	     -9.02171138	     10.10166088	     11.61072944	     -5.37540017	      0.00000000	    -11.58238222	     -0.10303675	      3.49648108	     16.67509335	    -13.14617267	     40.74515392	     22.22258998	    116.60879717	     13.28936650	     -8.90954232	     36.71704209	     25.47736228	    115.51910448
      1.03333330	      2.14585254	      5.25218379	    -19.88180964	      0.05382828	      0.99468497	      0.01821940	     -1.60850638	     -6.47987237	    -11.69470330	      7.41477486	      9.80549041	     -7.55686871	      0.00000000	      4.13708096	     -5.29054622	     -9.00950594	     10.10849550	     11.55525689	     -5.35655288	      0.00000000	    -11.61345780	     -0.12776957	      3.50076903	     16.59952803	    -13.44356120	     40.72027379	     22.09711172	    116.62165344	     13.03006771	     -9.14414816	     36.72494977	     25.28484310	    115.52986347
      1.05000000	      2.16954704	      5.20342774	    -19.87654802	      0.05362644	      0.99472089	      0.01869069	     -1.61836045	     -6.41536050	    -11.72459975	      7.48774006	      9.77647046	     -7.57554573	      0.00000000	      4.10562551	     -5.37218761	     -9.00645093	     10.13165831	     11.43564470	     -5.32355567	      0.00000000	    -11.54951524	     -0.10621579	      3.45465986	     16.41314759	    -13.71496130	     40.70797089	     21.97335203	    116.65875089	     12.56891850	     -9.33617823	     36.75795005	     24.93557583	    115.55575959
      1.06666670	      2.18364727	      5.16997663	    -19.86280963	      0.05334311	      0.99473171	      0.01905444	     -1.62390653	     -6.35862504	    -11.75388826	      7.51316678	      9.76072675	     -7.58549435	      0.00000000	      4.08980857	     -5.43393890	     -9.02669344	     10.12409171	     11.35664475	     -5.30117641	      0.00000000	    -11.48975818	     -0.10332066	      3.41322290	     16.24922430	    -13.99495705	     40.68592556	     21.87780731	    116.69699805	     12.14290129	     -9.59963376	     36.75529080	     24.51536905	    115.57521290
      1.08333330	      2.19755794	      5.13375547	    -19.86093492	      0.05310651	      0.99474598	      0.01936155	     -1.63762122	     -6.30598422	    -11.77774265	      7.52787580	      9.75467375	     -7.58689091	      0.00000000	      4.06590375	     -5.49476081	     -9.05999568	     10.11333378	     11.30028589	     -5.27315733	      0.00000000	    -11.42535020	     -0.13555381	      3.34465346	     16.05910132	    -14.25077151	     40.65161887	     21.79360184	    116.73811702	     11.72616519	     -9.87127396	     36.72795363	     24.02842513	    115.59130426
      1.10000000	      2.21472800	      5.10001933	    -19.85797623	      0.05282691	      0.99479003	      0.01966112	     -1.65019548	     -6.24802068	    -11.79210161	      7.54996437	      9.76006513	     -7.58316271	      0.00000000	      4.04693202	     -5.55354021	     -9.09413329	     10.10164272	     11.25854414	     -5.23349874	      0.00000000	    -11.38666396	     -0.19473925	      3.27817293	     15.85536227	    -14.45479055	     40.60248185	     21.71020073	    116.77390126	     11.30877289	    -10.18804576	     36.68315314	     23.50690349	    115.60173578
      1.11666670	      2.21504872	      5.06442144	    -19.86474622	      0.05254634	      0.99479852	      0.02012367	     -1.66035105	     -6.18118943	    -11.80014788	      7.53714901	      9.77387262	     -7.56969358	      0.00000000	      4.01712013	     -5.62169122	     -9.13820097	     10.05982738	     11.21899643	     -5.18241571	      0.00000000	    -11.33423801	     -0.26371009	      3.19540934	     15.62122632	    -14.64117297	     40.51733852	     21.57654812	    116.80381554	     10.87720401	    -10.53125939	     36.62098941	     22.92734392	    115.60815082
      1.13333330	      2.20426773	      5.02707618	    -19.90003227	      0.05234663	      0.99476624	      0.02067601	     -1.69081784	     -6.09184306	    -11.80173590	      7.47086408	      9.78157585	     -7.53435642	      0.00000000	      3.96918794	     -5.70679117	     -9.18618196	      9.98736770	     11.18005786	     -5.13589237	      0.00000000	    -11.25208340	     -0.33127817	      3.11775482	     15.39719114	    -14.73031993	     40.39471384	     21.42095863	    116.82227903	     10.45229869	    -10.89390283	     36.54523051	     22.34007956	    115.60944377
      1.15000000	      2.19403606	      4.97618824	    -19.94362376	      0.05213353	      0.99473004	      0.02143308	     -1.74585136	     -5.98045791	    -11.79262704	      7.35392054	      9.78385452	     -7.47602032	      0.00000000	      3.89726057	     -5.80091539	     -9.24236516	      9.88970884	     11.13457229	     -5.09432758	      0.00000000	    -11.15432153	     -0.39499160	      3.04703359	     15.19658377	    -14.75890074	     40.20597717	     21.22167492	    116.82783439	     10.06823718	    -11.25131310	     36.43895817	     21.74342873	    115.60441285
      1.16666670	      2.14726003	      4.91644713	    -19.93932907	      0.05210908	      0.99474129	      0.02186990	     -1.94936787	     -5.81219760	    -11.72578472	      6.91006510	      9.79162710	     -7.29162753	      0.00000000	      3.74228031	     -5.88044459	     -9.39839066	      9.53493900	     11.05306923	     -4.99463416	      0.00000000	    -10.99870315	     -0.37425736	      2.95342195	     15.01878941	    -14.67266640	     39.53395099	     20.72663855	    116.81285540	      9.80411611	    -11.38797320	     36.12157442	     20.79383426	    115.58778048
      1.18333330	      2.19602615	      4.86763616	    -20.04032985	      0.05164934	      0.99478714	      0.02273311	     -1.97909376	     -5.73624035	    -11.74735035	      6.92834925	      9.72853466	     -7.25805623	      0.00000000	      3.68066316	     -5.96852055	     -9.35064885	      9.58935838	     11.03196188	     -4.96577469	      0.00000000	    -11.06201353	     -0.49535697	      2.99960250	     14.86069924	    -14.66911875	     39.36611292	     20.65396501	    116.80592293	      9.58081949	    -11.80818274	     36.00307410	     20.49271958	    115.57316761
      1.20000000	      2.44445137	      4.76149323	    -20.14864014	      0.05194183	      0.99526860	      0.02350144	     -2.49002206	     -5.64902036	    -11.70689842	      6.54653286	      9.71081438	     -6.94589068	      0.00000000	      3.12764489	     -5.98777382	     -9.59186713	      9.18376708	     10.93814096	     -4.70549079	      0.00000000	    -11.32395970	     -0.56388414	      3.19309604	     14.10790380	    -14.40471984	     34.97025498	     21.03608529	    116.77085462	      9.26856164	    -11.86220081	     33.67232511	     20.16171424	    115.36633055
